# xmcd CD database file
#
# Track frame offsets:
#	150
#	17005
#	41385
#	58297
#
# Disc length: 1097 seconds
#
# Revision: 1
# Processed by: cddbd v1.5.1PL0 Copyright (c) Steve Scherf et al.
# Submitted via: CDex 1.51
#
DISCID=2c044704
DTITLE=榊　太郎 - 勝者のセオリー
DYEAR=2003
DGENRE=Anime
TTITLE0=勝者のセオリー
TTITLE1=ＤＥＳＥＲＴ　ＲＯＳＥ
TTITLE2=勝者のセオリー　（Ｏｒｉｇｉｎａｌ　Ｋａｒａｏｋｅ）
TTITLE3=ＤＥＳＥＲＴ　ＲＯＳＥ　（Ｏｒｉｇｉｎａｌ　Ｋａｒａｏｋｅ）
EXTD=YEAR: 2003
EXTT0=
EXTT1=
EXTT2=
EXTT3=
PLAYORDER=
